<mxfile host="app.diagrams.net" agent="Mozilla/5.0 (X11; Linux x86_64) AppleWebKit/537.36 (KHTML, like Gecko) Chrome/137.0.0.0 Safari/537.36" version="28.0.7" pages="2">
  <diagram name="display_sketch" id="MffaKH4aCSd3M-E-CYFU">
    <mxGraphModel dx="2487" dy="1442" grid="1" gridSize="10" guides="1" tooltips="1" connect="1" arrows="1" fold="1" page="1" pageScale="1" pageWidth="827" pageHeight="1169" math="1" shadow="0">
      <root>
        <mxCell id="0" />
        <mxCell id="1" parent="0" />
        <mxCell id="3uyDhm852BFjm8ysMibl-6" style="rounded=0;orthogonalLoop=1;jettySize=auto;html=1;endArrow=none;endFill=0;strokeColor=light-dark(#000000,#383838);strokeWidth=5;" edge="1" parent="1" source="3uyDhm852BFjm8ysMibl-1" target="3uyDhm852BFjm8ysMibl-4">
          <mxGeometry relative="1" as="geometry" />
        </mxCell>
        <mxCell id="3uyDhm852BFjm8ysMibl-1" value="Temperature Sensor" style="rounded=1;whiteSpace=wrap;html=1;strokeColor=light-dark(#000000,#383838);strokeWidth=5;" vertex="1" parent="1">
          <mxGeometry x="150" y="220" width="120" height="60" as="geometry" />
        </mxCell>
        <mxCell id="3uyDhm852BFjm8ysMibl-5" style="rounded=0;orthogonalLoop=1;jettySize=auto;html=1;endArrow=none;endFill=0;strokeColor=light-dark(#000000,#383838);strokeWidth=5;" edge="1" parent="1" source="3uyDhm852BFjm8ysMibl-2" target="3uyDhm852BFjm8ysMibl-4">
          <mxGeometry relative="1" as="geometry" />
        </mxCell>
        <mxCell id="3uyDhm852BFjm8ysMibl-2" value="Humidity Sensor" style="rounded=1;whiteSpace=wrap;html=1;strokeColor=light-dark(#000000,#383838);strokeWidth=5;" vertex="1" parent="1">
          <mxGeometry x="150" y="320" width="120" height="60" as="geometry" />
        </mxCell>
        <mxCell id="yM78vR69UEr1Z35X5jRL-2" style="rounded=0;orthogonalLoop=1;jettySize=auto;html=1;endArrow=none;endFill=0;" edge="1" parent="1" source="3uyDhm852BFjm8ysMibl-4" target="yM78vR69UEr1Z35X5jRL-1">
          <mxGeometry relative="1" as="geometry" />
        </mxCell>
        <mxCell id="3uyDhm852BFjm8ysMibl-4" value="\(10^\circ C\vert^{50^\circ F}\)&lt;div&gt;\(\scriptscriptstyle Humidity: 89\%\)&lt;/div&gt;" style="rounded=1;whiteSpace=wrap;html=1;fontSize=40;strokeColor=light-dark(#000000,#383838);strokeWidth=5;" vertex="1" parent="1">
          <mxGeometry x="350" y="200" width="320" height="190" as="geometry" />
        </mxCell>
        <mxCell id="3uyDhm852BFjm8ysMibl-8" style="rounded=0;orthogonalLoop=1;jettySize=auto;html=1;endArrow=none;endFill=0;strokeColor=light-dark(#000000,#383838);strokeWidth=5;" edge="1" parent="1" source="3uyDhm852BFjm8ysMibl-7" target="3uyDhm852BFjm8ysMibl-4">
          <mxGeometry relative="1" as="geometry" />
        </mxCell>
        <mxCell id="3uyDhm852BFjm8ysMibl-7" value="Disk" style="shape=cylinder3;whiteSpace=wrap;html=1;boundedLbl=1;backgroundOutline=1;size=15;strokeColor=light-dark(#000000,#383838);strokeWidth=5;" vertex="1" parent="1">
          <mxGeometry x="468.75" y="450" width="82.5" height="110" as="geometry" />
        </mxCell>
        <mxCell id="yM78vR69UEr1Z35X5jRL-1" value="" style="ellipse;shape=cloud;whiteSpace=wrap;html=1;" vertex="1" parent="1">
          <mxGeometry x="827" y="170" width="300" height="240" as="geometry" />
        </mxCell>
        <mxCell id="yM78vR69UEr1Z35X5jRL-6" style="rounded=0;orthogonalLoop=1;jettySize=auto;html=1;endArrow=none;endFill=0;" edge="1" parent="1" source="yM78vR69UEr1Z35X5jRL-3" target="yM78vR69UEr1Z35X5jRL-1">
          <mxGeometry relative="1" as="geometry" />
        </mxCell>
        <mxCell id="yM78vR69UEr1Z35X5jRL-3" value="" style="sketch=0;pointerEvents=1;shadow=0;dashed=0;html=1;strokeColor=none;fillColor=#505050;labelPosition=center;verticalLabelPosition=bottom;verticalAlign=top;outlineConnect=0;align=center;shape=mxgraph.office.devices.cell_phone_generic;" vertex="1" parent="1">
          <mxGeometry x="820" y="491" width="38.72" height="70" as="geometry" />
        </mxCell>
        <mxCell id="yM78vR69UEr1Z35X5jRL-7" style="rounded=0;orthogonalLoop=1;jettySize=auto;html=1;endArrow=none;endFill=0;" edge="1" parent="1" source="yM78vR69UEr1Z35X5jRL-4" target="yM78vR69UEr1Z35X5jRL-1">
          <mxGeometry relative="1" as="geometry" />
        </mxCell>
        <mxCell id="yM78vR69UEr1Z35X5jRL-4" value="" style="sketch=0;pointerEvents=1;shadow=0;dashed=0;html=1;strokeColor=none;fillColor=#505050;labelPosition=center;verticalLabelPosition=bottom;verticalAlign=top;outlineConnect=0;align=center;shape=mxgraph.office.devices.laptop;" vertex="1" parent="1">
          <mxGeometry x="920" y="495" width="105.76" height="62" as="geometry" />
        </mxCell>
        <mxCell id="yM78vR69UEr1Z35X5jRL-8" style="rounded=0;orthogonalLoop=1;jettySize=auto;html=1;endArrow=none;endFill=0;" edge="1" parent="1" source="yM78vR69UEr1Z35X5jRL-5" target="yM78vR69UEr1Z35X5jRL-1">
          <mxGeometry relative="1" as="geometry" />
        </mxCell>
        <mxCell id="yM78vR69UEr1Z35X5jRL-5" value="" style="sketch=0;pointerEvents=1;shadow=0;dashed=0;html=1;strokeColor=none;fillColor=#505050;labelPosition=center;verticalLabelPosition=bottom;verticalAlign=top;outlineConnect=0;align=center;shape=mxgraph.office.devices.workstation;" vertex="1" parent="1">
          <mxGeometry x="1080" y="480" width="87.07" height="92" as="geometry" />
        </mxCell>
      </root>
    </mxGraphModel>
  </diagram>
  <diagram id="TwtWHsmdJWrPmaD9rJ07" name="system_sketch">
    <mxGraphModel dx="1140" dy="661" grid="1" gridSize="10" guides="1" tooltips="1" connect="1" arrows="1" fold="1" page="1" pageScale="1" pageWidth="827" pageHeight="1169" math="1" shadow="0">
      <root>
        <mxCell id="0" />
        <mxCell id="1" parent="0" />
        <mxCell id="xJjRMf2vhMvaOUHp9173-4" style="rounded=0;orthogonalLoop=1;jettySize=auto;html=1;strokeWidth=5;strokeColor=light-dark(#000000,#383838);" edge="1" parent="1" source="xJjRMf2vhMvaOUHp9173-1" target="xJjRMf2vhMvaOUHp9173-3">
          <mxGeometry relative="1" as="geometry" />
        </mxCell>
        <mxCell id="xJjRMf2vhMvaOUHp9173-1" value="Temperature Sensor" style="rounded=1;whiteSpace=wrap;html=1;strokeWidth=5;strokeColor=light-dark(#000000,#383838);" vertex="1" parent="1">
          <mxGeometry x="120" y="240" width="120" height="60" as="geometry" />
        </mxCell>
        <mxCell id="xJjRMf2vhMvaOUHp9173-5" style="rounded=0;orthogonalLoop=1;jettySize=auto;html=1;strokeWidth=5;strokeColor=light-dark(#000000,#383838);" edge="1" parent="1" source="xJjRMf2vhMvaOUHp9173-2" target="xJjRMf2vhMvaOUHp9173-3">
          <mxGeometry relative="1" as="geometry" />
        </mxCell>
        <mxCell id="xJjRMf2vhMvaOUHp9173-2" value="Humidity Sensor" style="rounded=1;whiteSpace=wrap;html=1;strokeWidth=5;strokeColor=light-dark(#000000,#383838);" vertex="1" parent="1">
          <mxGeometry x="120" y="340" width="120" height="60" as="geometry" />
        </mxCell>
        <mxCell id="xJjRMf2vhMvaOUHp9173-3" value="Core" style="rounded=1;whiteSpace=wrap;html=1;strokeWidth=5;strokeColor=light-dark(#000000,#383838);" vertex="1" parent="1">
          <mxGeometry x="320" y="260" width="270" height="120" as="geometry" />
        </mxCell>
        <mxCell id="xJjRMf2vhMvaOUHp9173-6" value="" style="line;strokeWidth=5;html=1;strokeColor=light-dark(#000000,#383838);" vertex="1" parent="1">
          <mxGeometry x="80" y="210" width="640" height="10" as="geometry" />
        </mxCell>
        <mxCell id="xJjRMf2vhMvaOUHp9173-8" style="edgeStyle=orthogonalEdgeStyle;rounded=0;orthogonalLoop=1;jettySize=auto;html=1;startArrow=classic;startFill=1;strokeWidth=5;strokeColor=light-dark(#000000,#383838);" edge="1" parent="1" source="xJjRMf2vhMvaOUHp9173-7" target="xJjRMf2vhMvaOUHp9173-3">
          <mxGeometry relative="1" as="geometry" />
        </mxCell>
        <mxCell id="xJjRMf2vhMvaOUHp9173-7" value="Qt QML" style="rounded=1;whiteSpace=wrap;html=1;strokeWidth=5;strokeColor=light-dark(#000000,#383838);" vertex="1" parent="1">
          <mxGeometry x="335" y="50" width="240" height="120" as="geometry" />
        </mxCell>
        <mxCell id="xJjRMf2vhMvaOUHp9173-12" style="edgeStyle=orthogonalEdgeStyle;rounded=0;orthogonalLoop=1;jettySize=auto;html=1;startArrow=classic;startFill=1;strokeWidth=5;strokeColor=light-dark(#000000,#383838);" edge="1" parent="1" source="xJjRMf2vhMvaOUHp9173-9" target="xJjRMf2vhMvaOUHp9173-11">
          <mxGeometry relative="1" as="geometry" />
        </mxCell>
        <mxCell id="xJjRMf2vhMvaOUHp9173-9" value="Storage handler" style="rounded=1;whiteSpace=wrap;html=1;strokeWidth=5;strokeColor=light-dark(#000000,#383838);" vertex="1" parent="1">
          <mxGeometry x="330" y="340" width="100" height="30" as="geometry" />
        </mxCell>
        <mxCell id="xJjRMf2vhMvaOUHp9173-14" style="edgeStyle=orthogonalEdgeStyle;rounded=0;orthogonalLoop=1;jettySize=auto;html=1;strokeWidth=5;strokeColor=light-dark(#000000,#383838);" edge="1" parent="1" source="xJjRMf2vhMvaOUHp9173-10" target="xJjRMf2vhMvaOUHp9173-13">
          <mxGeometry relative="1" as="geometry" />
        </mxCell>
        <mxCell id="xJjRMf2vhMvaOUHp9173-10" value="Cloud handler" style="rounded=1;whiteSpace=wrap;html=1;strokeWidth=5;strokeColor=light-dark(#000000,#383838);" vertex="1" parent="1">
          <mxGeometry x="470" y="340" width="100" height="30" as="geometry" />
        </mxCell>
        <mxCell id="xJjRMf2vhMvaOUHp9173-11" value="Storage" style="shape=datastore;whiteSpace=wrap;html=1;strokeWidth=5;strokeColor=light-dark(#000000,#383838);" vertex="1" parent="1">
          <mxGeometry x="350" y="450" width="60" height="60" as="geometry" />
        </mxCell>
        <mxCell id="xJjRMf2vhMvaOUHp9173-13" value="Cloud Service" style="ellipse;shape=cloud;whiteSpace=wrap;html=1;strokeWidth=5;strokeColor=light-dark(#000000,#383838);" vertex="1" parent="1">
          <mxGeometry x="460" y="430" width="120" height="80" as="geometry" />
        </mxCell>
        <mxCell id="4-RaiHBL1VUBDglGa1RU-1" value="Alarm" style="rounded=1;whiteSpace=wrap;html=1;strokeWidth=5;strokeColor=light-dark(#000000,#383838);" vertex="1" parent="1">
          <mxGeometry x="330" y="300" width="100" height="30" as="geometry" />
        </mxCell>
      </root>
    </mxGraphModel>
  </diagram>
</mxfile>
